<svg xmlns="http://www.w3.org/2000/svg" width="64" height="64" aria-label="StoryFab favicon" role="img" viewBox="0 0 64 64"><title>StoryFab</title><defs><linearGradient id="bgGradF" x1="0%" x2="100%" y1="0%" y2="100%"><stop offset="0%" stop-color="#0f0c29"/><stop offset="100%" stop-color="#24243e"/></linearGradient><linearGradient id="filmGradF" x1="0%" x2="100%" y1="0%" y2="100%"><stop offset="0%" stop-color="#ff8a5b"/><stop offset="100%" stop-color="#e63946"/></linearGradient><linearGradient id="aiGradF" x1="0%" x2="100%" y1="0%" y2="100%"><stop offset="0%" stop-color="#4cc9f0"/><stop offset="100%" stop-color="#7209b7"/></linearGradient></defs><rect width="64" height="64" fill="url(#bgGradF)" rx="14" ry="14"/><g transform="rotate(-22 32 32)"><rect width="44" height="14" x="10" y="25" fill="url(#filmGradF)" rx="2"/><g fill="#0f0c29"><rect width="4" height="2" x="13" y="28" rx=".5"/><rect width="4" height="2" x="19" y="28" rx=".5"/><rect width="4" height="2" x="25" y="28" rx=".5"/><rect width="4" height="2" x="31" y="28" rx=".5"/><rect width="4" height="2" x="37" y="28" rx=".5"/><rect width="4" height="2" x="43" y="28" rx=".5"/><rect width="4" height="2" x="13" y="34" rx=".5"/><rect width="4" height="2" x="19" y="34" rx=".5"/><rect width="4" height="2" x="25" y="34" rx=".5"/><rect width="4" height="2" x="31" y="34" rx=".5"/><rect width="4" height="2" x="37" y="34" rx=".5"/><rect width="4" height="2" x="43" y="34" rx=".5"/></g></g><g transform="translate(32 32)"><circle r="11" fill="#0f0c29" opacity=".92"/><path fill="url(#aiGradF)" d="M -3.5 -5 L 5 0 L -3.5 5 Z"/></g></svg>