<svg xmlns="http://www.w3.org/2000/svg" width="256" height="256" aria-label="StoryFab mark" role="img" viewBox="0 0 256 256"><title>StoryFab</title><defs><linearGradient id="sfBg" x1="0%" x2="100%" y1="0%" y2="100%"><stop offset="0%" stop-color="#0B0F1F"/><stop offset="100%" stop-color="#1A1F3A"/></linearGradient><linearGradient id="sfAccent" x1="0%" x2="100%" y1="0%" y2="100%"><stop offset="0%" stop-color="#7C3AED"/><stop offset="50%" stop-color="#EC4899"/><stop offset="100%" stop-color="#F59E0B"/></linearGradient><linearGradient id="sfFilm" x1="0%" x2="0%" y1="0%" y2="100%"><stop offset="0%" stop-color="#7C3AED" stop-opacity=".85"/><stop offset="100%" stop-color="#EC4899" stop-opacity=".85"/></linearGradient></defs><rect width="256" height="256" fill="url(#sfBg)" rx="56" ry="56"/><circle cx="128" cy="128" r="92" fill="none" stroke="url(#sfAccent)" stroke-opacity=".35" stroke-width="3"/><g transform="translate(0 0)"><rect width="192" height="24" x="32" y="116" fill="url(#sfFilm)" rx="3"/><rect width="6" height="16" x="40" y="120" fill="#0B0F1F" opacity=".9" rx="1.5"/><rect width="6" height="16" x="54" y="120" fill="#0B0F1F" opacity=".9" rx="1.5"/><rect width="6" height="16" x="68" y="120" fill="#0B0F1F" opacity=".9" rx="1.5"/><rect width="6" height="16" x="82" y="120" fill="#0B0F1F" opacity=".9" rx="1.5"/><rect width="6" height="16" x="96" y="120" fill="#0B0F1F" opacity=".9" rx="1.5"/><rect width="6" height="16" x="110" y="120" fill="#0B0F1F" opacity=".9" rx="1.5"/><rect width="6" height="16" x="124" y="120" fill="#0B0F1F" opacity=".9" rx="1.5"/><rect width="6" height="16" x="138" y="120" fill="#0B0F1F" opacity=".9" rx="1.5"/><rect width="6" height="16" x="152" y="120" fill="#0B0F1F" opacity=".9" rx="1.5"/><rect width="6" height="16" x="166" y="120" fill="#0B0F1F" opacity=".9" rx="1.5"/><rect width="6" height="16" x="180" y="120" fill="#0B0F1F" opacity=".9" rx="1.5"/><rect width="6" height="16" x="194" y="120" fill="#0B0F1F" opacity=".9" rx="1.5"/></g><g><path fill="none" stroke="url(#sfAccent)" stroke-linecap="round" stroke-linejoin="round" stroke-width="9" d="M -34 -22 C -34 -34 -22 -38 -12 -38 C -2 -38 8 -34 8 -22 C 8 -10 -8 -6 -16 0 C -24 6 -34 10 -34 22 C -34 34 -22 38 -10 38 C 0 38 12 34 18 26" transform="translate(128 128)"/><path fill="none" stroke="#F8FAFC" stroke-linecap="round" stroke-linejoin="round" stroke-width="9" d="M 14 -38 L 14 38 M 14 -38 L 40 -38 M 14 -2 L 34 -2" transform="translate(128 128)"/></g><circle cx="200" cy="200" r="6" fill="url(#sfAccent)"/></svg>