<svg xmlns="http://www.w3.org/2000/svg" width="512" height="128" aria-label="StoryFab horizontal logo" role="img" viewBox="0 0 512 128"><title>StoryFab</title><defs><linearGradient id="bgGradH" x1="0%" x2="100%" y1="0%" y2="100%"><stop offset="0%" stop-color="#0f0c29"/><stop offset="50%" stop-color="#1a1a3e"/><stop offset="100%" stop-color="#24243e"/></linearGradient><linearGradient id="filmGradH" x1="0%" x2="100%" y1="0%" y2="100%"><stop offset="0%" stop-color="#ff8a5b"/><stop offset="100%" stop-color="#e63946"/></linearGradient><linearGradient id="aiGradH" x1="0%" x2="100%" y1="0%" y2="100%"><stop offset="0%" stop-color="#4cc9f0"/><stop offset="100%" stop-color="#7209b7"/></linearGradient><linearGradient id="textGradH" x1="0%" x2="100%" y1="0%" y2="0%"><stop offset="0%" stop-color="#fff"/><stop offset="100%" stop-color="#c5c8ff"/></linearGradient></defs><g transform="translate(8 8)"><rect width="112" height="112" fill="url(#bgGradH)" rx="24" ry="24"/><g transform="rotate(-22 56 56)"><rect width="72" height="24" x="20" y="44" fill="url(#filmGradH)" rx="3"/><g fill="#0f0c29"><rect width="6" height="3" x="24" y="48" rx=".5"/><rect width="6" height="3" x="34" y="48" rx=".5"/><rect width="6" height="3" x="44" y="48" rx=".5"/><rect width="6" height="3" x="54" y="48" rx=".5"/><rect width="6" height="3" x="64" y="48" rx=".5"/><rect width="6" height="3" x="74" y="48" rx=".5"/><rect width="6" height="3" x="24" y="61" rx=".5"/><rect width="6" height="3" x="34" y="61" rx=".5"/><rect width="6" height="3" x="44" y="61" rx=".5"/><rect width="6" height="3" x="54" y="61" rx=".5"/><rect width="6" height="3" x="64" y="61" rx=".5"/><rect width="6" height="3" x="74" y="61" rx=".5"/></g></g><g transform="translate(56 56)"><circle r="20" fill="#0f0c29" opacity=".92"/><circle r="20" fill="none" stroke="url(#aiGradH)" stroke-width="1.5" opacity=".85"/><path fill="url(#aiGradH)" d="M -6 -9 L 9 0 L -6 9 Z"/></g><g fill="none" stroke="url(#aiGradH)" stroke-linecap="round" stroke-width="1.8" opacity=".9"><polyline points="18 92 32 92 38 86 44 98 50 86 56 98 62 86 68 92 94 92"/></g></g><g><text x="0" y="62" fill="url(#textGradH)" font-family="Inter, 'Helvetica Neue', Helvetica, Arial, 'PingFang SC', 'Microsoft YaHei', sans-serif" font-size="44" font-weight="800" letter-spacing="-1.2" transform="translate(140 0)">Story<tspan fill="url(#filmGradH)">Fab</tspan></text><text x="2" y="92" fill="#9aa0c8" font-family="Inter, 'Helvetica Neue', Helvetica, Arial, 'PingFang SC', 'Microsoft YaHei', sans-serif" font-size="13" font-weight="500" letter-spacing="2.4" transform="translate(140 0)">AI · STORY · STUDIO</text></g></svg>