<svg xmlns="http://www.w3.org/2000/svg" viewBox="0 0 400 100" width="400" height="100">
  <defs>
    <linearGradient id="bg" x1="0%" y1="0%" x2="100%" y2="100%">
      <stop offset="0%" stop-color="#1a1a2e"/>
      <stop offset="100%" stop-color="#16213e"/>
    </linearGradient>
    <linearGradient id="film" x1="0%" y1="0%" x2="100%" y2="100%">
      <stop offset="0%" stop-color="#f4a261"/>
      <stop offset="100%" stop-color="#e76f51"/>
    </linearGradient>
    <linearGradient id="ai" x1="0%" y1="0%" x2="100%" y2="100%">
      <stop offset="0%" stop-color="#a8dadc"/>
      <stop offset="100%" stop-color="#457b9d"/>
    </linearGradient>
    <linearGradient id="text" x1="0%" y1="0%" x2="100%" y2="0%">
      <stop offset="0%" stop-color="#f4a261"/>
      <stop offset="100%" stop-color="#e76f51"/>
    </linearGradient>
  </defs>

  <!-- Background -->
  <rect width="400" height="100" rx="12" fill="url(#bg)"/>

  <!-- Film reel (left) -->
  <g transform="translate(20, 20)">
    <circle cx="30" cy="30" r="26" fill="none" stroke="url(#film)" stroke-width="3.5"/>
    <circle cx="30" cy="30" r="9" fill="url(#film)"/>
    <circle cx="30" cy="8" r="4.5" fill="url(#film)"/>
    <circle cx="30" cy="52" r="4.5" fill="url(#film)"/>
    <circle cx="8" cy="30" r="4.5" fill="url(#film)"/>
    <circle cx="52" cy="30" r="4.5" fill="url(#film)"/>
    <circle cx="30" cy="30" r="3" fill="#1a1a2e"/>
  </g>

  <!-- Play button -->
  <path d="M260,25 L290,50 L260,75 Z" fill="url(#film)"/>

  <!-- AI star -->
  <g transform="translate(305, 25)">
    <path d="M12,0 L14,9 L24,12 L14,15 L12,24 L10,15 L0,12 L10,9 Z" fill="url(#ai)"/>
  </g>

  <!-- Waveform -->
  <g transform="translate(330, 30)" opacity="0.6">
    <rect x="0" y="10" width="4" height="20" rx="2" fill="url(#ai)"/>
    <rect x="8" y="5" width="4" height="30" rx="2" fill="url(#ai)"/>
    <rect x="16" y="0" width="4" height="40" rx="2" fill="url(#ai)"/>
    <rect x="24" y="8" width="4" height="24" rx="2" fill="url(#ai)"/>
    <rect x="32" y="15" width="4" height="10" rx="2" fill="url(#ai)"/>
    <rect x="40" y="6" width="4" height="28" rx="2" fill="url(#ai)"/>
    <rect x="48" y="2" width="4" height="36" rx="2" fill="url(#ai)"/>
  </g>

  <!-- "StoryFab" text -->
  <text x="100" y="62" font-family="monospace" font-size="32" font-weight="bold" fill="url(#text)">StoryFab</text>

  <!-- Tagline -->
  <text x="100" y="82" font-family="sans-serif" font-size="11" fill="#a8dadc" opacity="0.8">AI 影视解说创作工具</text>

  <!-- Separator line -->
  <rect x="100" y="88" width="200" height="1" rx="0.5" fill="url(#film)" opacity="0.4"/>
</svg>