<svg xmlns="http://www.w3.org/2000/svg" width="64" height="64" aria-label="StoryFab" role="img" viewBox="0 0 64 64"><title>StoryFab</title><defs><linearGradient id="sfFavBg" x1="0%" x2="100%" y1="0%" y2="100%"><stop offset="0%" stop-color="#0B0F1F"/><stop offset="100%" stop-color="#1A1F3A"/></linearGradient><linearGradient id="sfFavAccent" x1="0%" x2="100%" y1="0%" y2="100%"><stop offset="0%" stop-color="#7C3AED"/><stop offset="50%" stop-color="#EC4899"/><stop offset="100%" stop-color="#F59E0B"/></linearGradient></defs><rect width="64" height="64" fill="url(#sfFavBg)" rx="14" ry="14"/><rect width="48" height="8" x="8" y="28" fill="url(#sfFavAccent)" opacity=".85" rx="1.5"/><g><path fill="none" stroke="url(#sfFavAccent)" stroke-linecap="round" stroke-linejoin="round" stroke-width="2.5" d="M -8 -6 C -8 -10 -4 -11 0 -11 C 4 -11 7 -10 7 -6 C 7 -2 -3 0 -7 4 C -10 7 -10 11 -6 11 C -2 11 2 10 5 7" transform="translate(32 32)"/><path fill="none" stroke="#F8FAFC" stroke-linecap="round" stroke-linejoin="round" stroke-width="2.5" d="M 5 -11 L 5 11 M 5 -11 L 13 -11 M 5 -2 L 11 -2" transform="translate(32 32)"/></g></svg>