<svg xmlns="http://www.w3.org/2000/svg" width="128" height="128" viewBox="0 0 128 128"><defs><linearGradient id="bg" x1="0%" x2="100%" y1="0%" y2="100%"><stop offset="0%" stop-color="#0C0D14"/><stop offset="100%" stop-color="#1A1B2E"/></linearGradient><linearGradient id="film" x1="0%" x2="100%" y1="0%" y2="100%"><stop offset="0%" stop-color="#FF9F43"/><stop offset="100%" stop-color="#FFB06B"/></linearGradient><linearGradient id="spark" x1="0%" x2="100%" y1="0%" y2="0%"><stop offset="0%" stop-color="#00D4FF"/><stop offset="100%" stop-color="#00F5E4"/></linearGradient></defs><rect width="128" height="128" fill="url(#bg)" rx="28"/><rect width="22" height="72" x="18" y="28" fill="url(#film)" opacity=".9" rx="4"/><rect width="18" height="6" x="20" y="34" fill="#0C0D14" opacity=".6" rx="2"/><rect width="18" height="6" x="20" y="46" fill="#0C0D14" opacity=".6" rx="2"/><rect width="18" height="6" x="20" y="58" fill="#0C0D14" opacity=".6" rx="2"/><rect width="18" height="6" x="20" y="70" fill="#0C0D14" opacity=".6" rx="2"/><rect width="18" height="6" x="20" y="82" fill="#0C0D14" opacity=".6" rx="2"/><rect width="18" height="6" x="20" y="94" fill="#0C0D14" opacity=".6" rx="2"/><rect width="22" height="72" x="88" y="28" fill="url(#film)" opacity=".9" rx="4"/><rect width="18" height="6" x="90" y="34" fill="#0C0D14" opacity=".6" rx="2"/><rect width="18" height="6" x="90" y="46" fill="#0C0D14" opacity=".6" rx="2"/><rect width="18" height="6" x="90" y="58" fill="#0C0D14" opacity=".6" rx="2"/><rect width="18" height="6" x="90" y="70" fill="#0C0D14" opacity=".6" rx="2"/><rect width="18" height="6" x="90" y="82" fill="#0C0D14" opacity=".6" rx="2"/><rect width="18" height="6" x="90" y="94" fill="#0C0D14" opacity=".6" rx="2"/><polygon fill="url(#spark)" points="50 40 50 88 88 64" opacity=".95"/><g><path fill="#00D4FF" d="M8,0 L9.5,6 L16,8 L9.5,10 L8,16 L6.5,10 L0,8 L6.5,6 Z" opacity=".85" transform="translate(98, 20)"/></g><g><path fill="#FF9F43" d="M6,0 L7,4.5 L12,6 L7,7.5 L6,12 L5,7.5 L0,6 L5,4.5 Z" opacity=".75" transform="translate(8, 96)"/></g></svg>