<svg xmlns="http://www.w3.org/2000/svg" width="256" height="256" aria-label="StoryFab mark" role="img" viewBox="0 0 256 256"><title>StoryFab</title><defs><linearGradient id="sfAppBg" x1="0%" x2="100%" y1="0%" y2="100%"><stop offset="0%" stop-color="#0F0C29"/><stop offset="100%" stop-color="#1B1742"/></linearGradient><linearGradient id="sfAppRing" x1="0%" x2="100%" y1="0%" y2="100%"><stop offset="0%" stop-color="#FF6B35"/><stop offset="100%" stop-color="#FF3D6E"/></linearGradient></defs><rect width="256" height="256" fill="url(#sfAppBg)" rx="56" ry="56"/><circle cx="128" cy="128" r="80" fill="none" stroke="url(#sfAppRing)" stroke-width="6"/><path fill="url(#sfAppRing)" d="M 112 92 L 168 128 L 112 164 Z"/><g fill="url(#sfAppRing)" opacity=".5"><rect width="5" height="10" x="32" y="42" rx="1.5"/><rect width="5" height="10" x="52" y="42" rx="1.5"/><rect width="5" height="10" x="199" y="42" rx="1.5"/><rect width="5" height="10" x="219" y="42" rx="1.5"/><rect width="5" height="10" x="32" y="204" rx="1.5"/><rect width="5" height="10" x="52" y="204" rx="1.5"/><rect width="5" height="10" x="199" y="204" rx="1.5"/><rect width="5" height="10" x="219" y="204" rx="1.5"/></g></svg>