<svg xmlns="http://www.w3.org/2000/svg" viewBox="0 0 128 128" width="128" height="128">
  <defs>
    <linearGradient id="bg" x1="0%" y1="0%" x2="100%" y2="100%">
      <stop offset="0%" stop-color="#1a1a2e"/>
      <stop offset="100%" stop-color="#16213e"/>
    </linearGradient>
    <linearGradient id="film" x1="0%" y1="0%" x2="100%" y2="100%">
      <stop offset="0%" stop-color="#f4a261"/>
      <stop offset="100%" stop-color="#e76f51"/>
    </linearGradient>
    <linearGradient id="ai" x1="0%" y1="0%" x2="100%" y2="100%">
      <stop offset="0%" stop-color="#a8dadc"/>
      <stop offset="100%" stop-color="#457b9d"/>
    </linearGradient>
    <filter id="glow">
      <feGaussianBlur stdDeviation="2" result="blur"/>
      <feMerge><feMergeNode in="blur"/><feMergeNode in="SourceGraphic"/></feMerge>
    </filter>
  </defs>

  <!-- Background circle -->
  <circle cx="64" cy="64" r="60" fill="url(#bg)"/>

  <!-- Film reel (story/narrative) -->
  <g transform="translate(30, 38)">
    <!-- Outer ring -->
    <circle cx="32" cy="32" r="28" fill="none" stroke="url(#film)" stroke-width="4"/>
    <!-- Inner hub -->
    <circle cx="32" cy="32" r="10" fill="url(#film)"/>
    <!-- Spokes -->
    <circle cx="32" cy="10" r="5" fill="url(#film)"/>
    <circle cx="32" cy="54" r="5" fill="url(#film)"/>
    <circle cx="10" cy="32" r="5" fill="url(#film)"/>
    <circle cx="54" cy="32" r="5" fill="url(#film)"/>
    <!-- Center hole -->
    <circle cx="32" cy="32" r="4" fill="#1a1a2e"/>
  </g>

  <!-- AI sparkle / star (AI-powered) -->
  <g transform="translate(80, 28)" filter="url(#glow)">
    <path d="M12,0 L14,9 L24,12 L14,15 L12,24 L10,15 L0,12 L10,9 Z" fill="url(#ai)"/>
  </g>

  <!-- Play button overlay (video) -->
  <g transform="translate(78, 68)">
    <path d="M0,0 L28,18 L0,36 Z" fill="#e76f51" opacity="0.9"/>
  </g>

  <!-- Waveform accent (audio/TTS) -->
  <g transform="translate(14, 92)" opacity="0.7">
    <rect x="0" y="8" width="4" height="16" rx="2" fill="url(#ai)"/>
    <rect x="8" y="4" width="4" height="24" rx="2" fill="url(#ai)"/>
    <rect x="16" y="0" width="4" height="32" rx="2" fill="url(#ai)"/>
    <rect x="24" y="6" width="4" height="20" rx="2" fill="url(#ai)"/>
    <rect x="32" y="10" width="4" height="12" rx="2" fill="url(#ai)"/>
    <rect x="40" y="5" width="4" height="22" rx="2" fill="url(#ai)"/>
    <rect x="48" y="2" width="4" height="28" rx="2" fill="url(#ai)"/>
    <rect x="56" y="7" width="4" height="18" rx="2" fill="url(#ai)"/>
  </g>

  <!-- "SF" text mark -->
  <text x="64" y="118" font-family="monospace" font-size="14" font-weight="bold"
        fill="#a8dadc" text-anchor="middle" opacity="0.8">StoryFab</text>
</svg>