<svg xmlns="http://www.w3.org/2000/svg" width="400" height="100" viewBox="0 0 400 100"><defs><linearGradient id="bg" x1="0%" x2="100%" y1="0%" y2="100%"><stop offset="0%" stop-color="#1a1a2e"/><stop offset="100%" stop-color="#16213e"/></linearGradient><linearGradient id="film" x1="0%" x2="100%" y1="0%" y2="100%"><stop offset="0%" stop-color="#f4a261"/><stop offset="100%" stop-color="#e76f51"/></linearGradient><linearGradient id="ai" x1="0%" x2="100%" y1="0%" y2="100%"><stop offset="0%" stop-color="#a8dadc"/><stop offset="100%" stop-color="#457b9d"/></linearGradient><linearGradient id="text" x1="0%" x2="100%" y1="0%" y2="0%"><stop offset="0%" stop-color="#f4a261"/><stop offset="100%" stop-color="#e76f51"/></linearGradient></defs><rect width="400" height="100" fill="url(#bg)" rx="12"/><g transform="translate(20, 20)"><circle cx="30" cy="30" r="26" fill="none" stroke="url(#film)" stroke-width="3.5"/><circle cx="30" cy="30" r="9" fill="url(#film)"/><circle cx="30" cy="8" r="4.5" fill="url(#film)"/><circle cx="30" cy="52" r="4.5" fill="url(#film)"/><circle cx="8" cy="30" r="4.5" fill="url(#film)"/><circle cx="52" cy="30" r="4.5" fill="url(#film)"/><circle cx="30" cy="30" r="3" fill="#1a1a2e"/></g><path fill="url(#film)" d="M260,25 L290,50 L260,75 Z"/><g><path fill="url(#ai)" d="M12,0 L14,9 L24,12 L14,15 L12,24 L10,15 L0,12 L10,9 Z" transform="translate(305, 25)"/></g><g opacity=".6" transform="translate(330, 30)"><rect width="4" height="20" x="0" y="10" fill="url(#ai)" rx="2"/><rect width="4" height="30" x="8" y="5" fill="url(#ai)" rx="2"/><rect width="4" height="40" x="16" y="0" fill="url(#ai)" rx="2"/><rect width="4" height="24" x="24" y="8" fill="url(#ai)" rx="2"/><rect width="4" height="10" x="32" y="15" fill="url(#ai)" rx="2"/><rect width="4" height="28" x="40" y="6" fill="url(#ai)" rx="2"/><rect width="4" height="36" x="48" y="2" fill="url(#ai)" rx="2"/></g><text x="100" y="62" fill="url(#text)" font-family="monospace" font-size="32" font-weight="bold">StoryFab</text><text x="100" y="82" fill="#a8dadc" font-family="sans-serif" font-size="11" opacity=".8">AI 影视解说创作工具</text><rect width="200" height="1" x="100" y="88" fill="url(#film)" opacity=".4" rx=".5"/></svg>