<svg xmlns="http://www.w3.org/2000/svg" width="256" height="256" aria-label="StoryFab Icon" role="img" viewBox="0 0 256 256"><title>StoryFab</title><defs><linearGradient id="iconBg" x1="0%" x2="100%" y1="0%" y2="100%"><stop offset="0%" stop-color="#0B0F1F"/><stop offset="100%" stop-color="#1A1F3A"/></linearGradient><linearGradient id="iconAccent" x1="0%" x2="100%" y1="0%" y2="100%"><stop offset="0%" stop-color="#7C3AED"/><stop offset="50%" stop-color="#EC4899"/><stop offset="100%" stop-color="#F59E0B"/></linearGradient></defs><rect width="256" height="256" fill="url(#iconBg)" rx="48"/><circle cx="128" cy="128" r="100" fill="none" stroke="url(#iconAccent)" stroke-opacity=".3" stroke-width="2.5"/><rect width="208" height="16" x="24" y="120" fill="url(#iconAccent)" opacity=".85" rx="2"/><rect width="8" height="8" x="36" y="124" fill="#0B0F1F" rx="1.5"/><rect width="8" height="8" x="56" y="124" fill="#0B0F1F" rx="1.5"/><rect width="8" height="8" x="76" y="124" fill="#0B0F1F" rx="1.5"/><rect width="8" height="8" x="96" y="124" fill="#0B0F1F" rx="1.5"/><rect width="8" height="8" x="116" y="124" fill="#0B0F1F" rx="1.5"/><rect width="8" height="8" x="136" y="124" fill="#0B0F1F" rx="1.5"/><rect width="8" height="8" x="156" y="124" fill="#0B0F1F" rx="1.5"/><rect width="8" height="8" x="176" y="124" fill="#0B0F1F" rx="1.5"/><rect width="8" height="8" x="196" y="124" fill="#0B0F1F" rx="1.5"/><g><path fill="none" stroke="url(#iconAccent)" stroke-linecap="round" stroke-linejoin="round" stroke-width="7" d="M -28 -18 C -28 -28 -18 -32 -10 -32 C -2 -32 8 -28 8 -18 C 8 -8 -16 -4 -24 4 C -32 12 -28 20 -28 32 C -28 44 -18 48 -8 48 C 2 48 14 44 22 36" transform="translate(128 95)"/><path fill="none" stroke="#F8FAFC" stroke-linecap="round" stroke-linejoin="round" stroke-width="7" d="M 18 -32 L 18 48 M 18 -32 L 42 -32 M 18 -2 L 38 -2" transform="translate(128 95)"/></g><polygon fill="url(#iconAccent)" points="128 200 108 220 148 220"/></svg>