<svg xmlns="http://www.w3.org/2000/svg" width="128" height="128" viewBox="0 0 128 128"><defs><linearGradient id="bg" x1="0%" x2="100%" y1="0%" y2="100%"><stop offset="0%" stop-color="#1a1a2e"/><stop offset="100%" stop-color="#16213e"/></linearGradient><linearGradient id="film" x1="0%" x2="100%" y1="0%" y2="100%"><stop offset="0%" stop-color="#f4a261"/><stop offset="100%" stop-color="#e76f51"/></linearGradient><linearGradient id="ai" x1="0%" x2="100%" y1="0%" y2="100%"><stop offset="0%" stop-color="#a8dadc"/><stop offset="100%" stop-color="#457b9d"/></linearGradient><filter id="glow"><feGaussianBlur result="blur" stdDeviation="2"/><feMerge><feMergeNode in="blur"/><feMergeNode in="SourceGraphic"/></feMerge></filter></defs><circle cx="64" cy="64" r="60" fill="url(#bg)"/><g transform="translate(30, 38)"><circle cx="32" cy="32" r="28" fill="none" stroke="url(#film)" stroke-width="4"/><circle cx="32" cy="32" r="10" fill="url(#film)"/><circle cx="32" cy="10" r="5" fill="url(#film)"/><circle cx="32" cy="54" r="5" fill="url(#film)"/><circle cx="10" cy="32" r="5" fill="url(#film)"/><circle cx="54" cy="32" r="5" fill="url(#film)"/><circle cx="32" cy="32" r="4" fill="#1a1a2e"/></g><g filter="url(#glow)" transform="translate(80, 28)"><path fill="url(#ai)" d="M12,0 L14,9 L24,12 L14,15 L12,24 L10,15 L0,12 L10,9 Z"/></g><g><path fill="#e76f51" d="M0,0 L28,18 L0,36 Z" opacity=".9" transform="translate(78, 68)"/></g><g opacity=".7" transform="translate(14, 92)"><rect width="4" height="16" x="0" y="8" fill="url(#ai)" rx="2"/><rect width="4" height="24" x="8" y="4" fill="url(#ai)" rx="2"/><rect width="4" height="32" x="16" y="0" fill="url(#ai)" rx="2"/><rect width="4" height="20" x="24" y="6" fill="url(#ai)" rx="2"/><rect width="4" height="12" x="32" y="10" fill="url(#ai)" rx="2"/><rect width="4" height="22" x="40" y="5" fill="url(#ai)" rx="2"/><rect width="4" height="28" x="48" y="2" fill="url(#ai)" rx="2"/><rect width="4" height="18" x="56" y="7" fill="url(#ai)" rx="2"/></g><text x="64" y="118" fill="#a8dadc" font-family="monospace" font-size="14" font-weight="bold" opacity=".8" text-anchor="middle">StoryFab</text></svg>