<svg xmlns="http://www.w3.org/2000/svg" viewBox="0 0 640 160" width="640" height="160" role="img" aria-label="StoryFab">
  <title>StoryFab — AI 影视解说创作工坊</title>
  <defs>
    <linearGradient id="sfMarkBg" x1="0%" y1="0%" x2="100%" y2="100%">
      <stop offset="0%" stop-color="#0F0C29"/>
      <stop offset="100%" stop-color="#1B1742"/>
    </linearGradient>
    <linearGradient id="sfMarkRing" x1="0%" y1="0%" x2="100%" y2="100%">
      <stop offset="0%" stop-color="#FF6B35"/>
      <stop offset="100%" stop-color="#FF3D6E"/>
    </linearGradient>
  </defs>

  <!-- Mark (left, 128x128 padded) -->
  <g transform="translate(16 16)">
    <!-- Rounded square (matches app icon) -->
    <rect width="128" height="128" rx="28" ry="28" fill="url(#sfMarkBg)"/>

    <!-- Outer film ring (dashed) -->
    <circle cx="64" cy="64" r="44" fill="none" stroke="url(#sfMarkRing)" stroke-width="2" stroke-dasharray="2 4" opacity="0.55"/>

    <!-- Inner solid ring (story loop) -->
    <circle cx="64" cy="64" r="34" fill="none" stroke="url(#sfMarkRing)" stroke-width="3"/>

    <!-- Center play triangle -->
    <path d="M 56 48 L 80 64 L 56 80 Z" fill="url(#sfMarkRing)"/>

    <!-- Frame ticks (top + bottom film perforations) -->
    <g fill="url(#sfMarkRing)" opacity="0.85">
      <rect x="18" y="20" width="3" height="6" rx="1"/>
      <rect x="28" y="20" width="3" height="6" rx="1"/>
      <rect x="38" y="20" width="3" height="6" rx="1"/>
      <rect x="86" y="20" width="3" height="6" rx="1"/>
      <rect x="96" y="20" width="3" height="6" rx="1"/>
      <rect x="106" y="20" width="3" height="6" rx="1"/>
      <rect x="18" y="102" width="3" height="6" rx="1"/>
      <rect x="28" y="102" width="3" height="6" rx="1"/>
      <rect x="38" y="102" width="3" height="6" rx="1"/>
      <rect x="86" y="102" width="3" height="6" rx="1"/>
      <rect x="96" y="102" width="3" height="6" rx="1"/>
      <rect x="106" y="102" width="3" height="6" rx="1"/>
    </g>
  </g>

  <!-- Wordmark (right) -->
  <g transform="translate(168 0)">
    <!-- Brand name -->
    <text x="0" y="86"
          font-family="Inter, 'Helvetica Neue', Helvetica, Arial, 'PingFang SC', 'Microsoft YaHei', sans-serif"
          font-size="58" font-weight="800" letter-spacing="-2"
          fill="#0F0C29">Story<tspan fill="url(#sfMarkRing)">Fab</tspan></text>
    <!-- Tagline -->
    <text x="3" y="118"
          font-family="Inter, 'SF Mono', 'JetBrains Mono', Menlo, Consolas, monospace"
          font-size="13" font-weight="600" letter-spacing="3.2"
          fill="#6B7280">AI · STORY · STUDIO</text>
  </g>
</svg>
