<svg xmlns="http://www.w3.org/2000/svg" viewBox="0 0 512 128" width="512" height="128" role="img" aria-label="StoryFab horizontal logo">
  <title>StoryFab</title>
  <defs>
    <linearGradient id="bgGradH" x1="0%" y1="0%" x2="100%" y2="100%">
      <stop offset="0%" stop-color="#0f0c29"/>
      <stop offset="50%" stop-color="#1a1a3e"/>
      <stop offset="100%" stop-color="#24243e"/>
    </linearGradient>
    <linearGradient id="filmGradH" x1="0%" y1="0%" x2="100%" y2="100%">
      <stop offset="0%" stop-color="#ff8a5b"/>
      <stop offset="100%" stop-color="#e63946"/>
    </linearGradient>
    <linearGradient id="aiGradH" x1="0%" y1="0%" x2="100%" y2="100%">
      <stop offset="0%" stop-color="#4cc9f0"/>
      <stop offset="100%" stop-color="#7209b7"/>
    </linearGradient>
    <linearGradient id="textGradH" x1="0%" y1="0%" x2="100%" y2="0%">
      <stop offset="0%" stop-color="#ffffff"/>
      <stop offset="100%" stop-color="#c5c8ff"/>
    </linearGradient>
  </defs>

  <!-- Icon block (left side, square 112x112 padded) -->
  <g transform="translate(8 8)">
    <rect width="112" height="112" rx="24" ry="24" fill="url(#bgGradH)"/>
    <!-- Diagonal film strip -->
    <g transform="rotate(-22 56 56)">
      <rect x="20" y="44" width="72" height="24" rx="3" fill="url(#filmGradH)"/>
      <g fill="#0f0c29">
        <rect x="24" y="48" width="6" height="3" rx="0.5"/>
        <rect x="34" y="48" width="6" height="3" rx="0.5"/>
        <rect x="44" y="48" width="6" height="3" rx="0.5"/>
        <rect x="54" y="48" width="6" height="3" rx="0.5"/>
        <rect x="64" y="48" width="6" height="3" rx="0.5"/>
        <rect x="74" y="48" width="6" height="3" rx="0.5"/>
        <rect x="24" y="61" width="6" height="3" rx="0.5"/>
        <rect x="34" y="61" width="6" height="3" rx="0.5"/>
        <rect x="44" y="61" width="6" height="3" rx="0.5"/>
        <rect x="54" y="61" width="6" height="3" rx="0.5"/>
        <rect x="64" y="61" width="6" height="3" rx="0.5"/>
        <rect x="74" y="61" width="6" height="3" rx="0.5"/>
      </g>
    </g>
    <!-- Center play -->
    <g transform="translate(56 56)">
      <circle r="20" fill="#0f0c29" opacity="0.92"/>
      <circle r="20" fill="none" stroke="url(#aiGradH)" stroke-width="1.5" opacity="0.85"/>
      <path d="M -6 -9 L 9 0 L -6 9 Z" fill="url(#aiGradH)"/>
    </g>
    <!-- Pulse line -->
    <g stroke="url(#aiGradH)" stroke-width="1.8" stroke-linecap="round" fill="none" opacity="0.9">
      <polyline points="18,92 32,92 38,86 44,98 50,86 56,98 62,86 68,92 94,92"/>
    </g>
  </g>

  <!-- Wordmark (right side) -->
  <g transform="translate(140 0)">
    <text x="0" y="62"
          font-family="Inter, 'Helvetica Neue', Helvetica, Arial, 'PingFang SC', 'Microsoft YaHei', sans-serif"
          font-size="44" font-weight="800" letter-spacing="-1.2"
          fill="url(#textGradH)">Story<tspan fill="url(#filmGradH)">Fab</tspan></text>
    <text x="2" y="92"
          font-family="Inter, 'Helvetica Neue', Helvetica, Arial, 'PingFang SC', 'Microsoft YaHei', sans-serif"
          font-size="13" font-weight="500" letter-spacing="2.4"
          fill="#9aa0c8">AI · STORY · STUDIO</text>
  </g>
</svg>
